<svg width="24" height="24" viewBox="0 0 24 24" fill="none" xmlns="http://www.w3.org/2000/svg">
<path d="M4.16446 16.3489C3.97246 16.3489 3.78083 16.2758 3.63421 16.1291C3.34133 15.8363 3.34133 15.3615 3.63421 15.0686L15.3545 3.34838C15.647 3.0555 16.1221 3.0555 16.415 3.34838C16.7078 3.64125 16.7078 4.116 16.415 4.40888L4.69471 16.1291C4.54846 16.2754 4.35646 16.3489 4.16446 16.3489Z" fill="#2196f3"/>
<path d="M3.00636 21.75C2.95424 21.75 2.90136 21.7444 2.84849 21.7331C2.44349 21.6461 2.18549 21.2475 2.27249 20.8425L3.43124 15.4414C3.51824 15.0364 3.91874 14.7791 4.32186 14.8654C4.72686 14.9524 4.98486 15.351 4.89786 15.756L3.73911 21.1571C3.66374 21.5093 3.35249 21.75 3.00636 21.75Z" fill="#2196f3"/>
<path d="M8.40664 20.5912C8.21464 20.5912 8.02302 20.5181 7.87639 20.3715C7.58352 20.0786 7.58352 19.6039 7.87639 19.311L19.5966 7.59112C19.8891 7.29824 20.3643 7.29824 20.6571 7.59112C20.95 7.88399 20.95 8.35874 20.6571 8.65162L8.93727 20.3715C8.79064 20.5181 8.59864 20.5912 8.40664 20.5912Z" fill="#2196f3"/>
<path d="M3.00488 21.75C2.65876 21.75 2.34788 21.5092 2.27213 21.1571C2.18551 20.7521 2.44313 20.3535 2.84813 20.2665L8.24926 19.1077C8.65463 19.0219 9.05326 19.2791 9.13988 19.6837C9.22651 20.0887 8.96888 20.4874 8.56388 20.5744L3.16276 21.7331C3.10988 21.7447 3.05701 21.75 3.00488 21.75Z" fill="#2196f3"/>
<path d="M18.0057 10.9924C17.8137 10.9924 17.6217 10.9192 17.4755 10.7726L13.2331 6.53025C12.9402 6.23737 12.9402 5.76262 13.2331 5.46975C13.5256 5.17687 14.0011 5.17687 14.2936 5.46975L18.536 9.71212C18.8288 10.005 18.8288 10.4797 18.536 10.7726C18.3897 10.9192 18.1977 10.9924 18.0057 10.9924Z" fill="#2196f3"/>
<path d="M20.1271 8.87138C19.9351 8.87138 19.7431 8.79825 19.5964 8.65163C19.3036 8.35875 19.3036 7.884 19.5964 7.59075C20.0138 7.17338 20.2437 6.60825 20.2437 6C20.2437 5.39175 20.0138 4.82663 19.5964 4.40925C19.1787 3.9915 18.6136 3.76163 18.0053 3.76163C17.3971 3.76163 16.8319 3.9915 16.4146 4.40925C16.1221 4.70213 15.6473 4.7025 15.3537 4.40925C15.0608 4.11638 15.0608 3.64163 15.3537 3.34838C16.0542 2.6475 16.9958 2.26163 18.0053 2.26163C19.0144 2.26163 19.9564 2.6475 20.6569 3.34838C21.3578 4.04888 21.7437 4.9905 21.7437 6C21.7437 7.0095 21.3578 7.95113 20.6569 8.65163C20.5111 8.79788 20.3191 8.87138 20.1271 8.87138Z" fill="#2196f3"/>
</svg>
