<svg width="20" height="14" viewBox="0 0 20 14" fill="none" xmlns="http://www.w3.org/2000/svg">
<path d="M17.7142 6.13502C18.1092 6.65169 18.1092 7.34919 17.7142 7.86502C16.47 9.48919 13.485 12.8334 9.99999 12.8334C6.51499 12.8334 3.52999 9.48919 2.28582 7.86502C2.09364 7.61763 1.98932 7.31329 1.98932 7.00002C1.98932 6.68676 2.09364 6.38241 2.28582 6.13502C3.52999 4.51085 6.51499 1.16669 9.99999 1.16669C13.485 1.16669 16.47 4.51085 17.7142 6.13502V6.13502Z" stroke="#000" stroke-width="2" stroke-linecap="round" stroke-linejoin="round"/>
<path d="M10 9.5C11.3807 9.5 12.5 8.38071 12.5 7C12.5 5.61929 11.3807 4.5 10 4.5C8.61929 4.5 7.5 5.61929 7.5 7C7.5 8.38071 8.61929 9.5 10 9.5Z" stroke="#000" stroke-width="2" stroke-linecap="round" stroke-linejoin="round"/>
</svg>
