<svg width="20" height="20" viewBox="0 0 20 20" fill="none" xmlns="http://www.w3.org/2000/svg">
<path d="M15.4691 3.75081H12.6045V3.22998C12.6045 2.36842 11.9035 1.66748 11.042 1.66748H8.95866C8.0971 1.66748 7.39616 2.36842 7.39616 3.22998V3.75081H4.53158C3.81361 3.75081 3.22949 4.33493 3.22949 5.0529V6.87581C3.22949 7.16344 3.4627 7.39665 3.75033 7.39665H4.03496L4.48493 16.846C4.52467 17.6805 5.21022 18.3341 6.04564 18.3341H13.955C14.7905 18.3341 15.476 17.6805 15.5157 16.846L15.9657 7.39665H16.2503C16.538 7.39665 16.7712 7.16344 16.7712 6.87581V5.0529C16.7712 4.33493 16.187 3.75081 15.4691 3.75081ZM8.43783 3.22998C8.43783 2.94281 8.67148 2.70915 8.95866 2.70915H11.042C11.3292 2.70915 11.5628 2.94281 11.5628 3.22998V3.75081H8.43783V3.22998ZM4.27116 5.0529C4.27116 4.90931 4.38799 4.79248 4.53158 4.79248H15.4691C15.6127 4.79248 15.7295 4.90931 15.7295 5.0529V6.35498C15.569 6.35498 4.9363 6.35498 4.27116 6.35498V5.0529ZM14.4752 16.7964C14.462 17.0746 14.2335 17.2925 13.955 17.2925H6.04564C5.76715 17.2925 5.53864 17.0746 5.52542 16.7964L5.0778 7.39665H14.9229L14.4752 16.7964Z" fill="#ED1C24"/>
<path d="M10.0003 16.251C10.288 16.251 10.5212 16.0178 10.5212 15.7301V8.95931C10.5212 8.67168 10.288 8.43848 10.0003 8.43848C9.7127 8.43848 9.47949 8.67168 9.47949 8.95931V15.7301C9.47949 16.0178 9.71266 16.251 10.0003 16.251Z" fill="#ED1C24"/>
<path d="M12.6048 16.251C12.8924 16.251 13.1257 16.0178 13.1257 15.7301V8.95931C13.1257 8.67168 12.8924 8.43848 12.6048 8.43848C12.3172 8.43848 12.084 8.67168 12.084 8.95931V15.7301C12.084 16.0178 12.3172 16.251 12.6048 16.251Z" fill="#ED1C24"/>
<path d="M7.39583 16.251C7.68346 16.251 7.91667 16.0178 7.91667 15.7301V8.95931C7.91667 8.67168 7.68346 8.43848 7.39583 8.43848C7.1082 8.43848 6.875 8.67168 6.875 8.95931V15.7301C6.875 16.0178 7.10817 16.251 7.39583 16.251Z" fill="#ED1C24"/>
</svg>
