<svg width="10" height="6" viewBox="0 0 10 6" fill="none" xmlns="http://www.w3.org/2000/svg">
<path d="M9.69152 2.44691L5.75769 0.093312C5.66037 0.034097 5.54893 0.00210378 5.43502 0.000674877C5.32111 -0.00075403 5.20891 0.0284338 5.11014 0.085189C5.00296 0.147598 4.91421 0.237259 4.8529 0.345065C4.79159 0.452871 4.7599 0.574982 4.76105 0.698998V2.34547L0.996971 0.0926871C0.899652 0.0334722 0.788216 0.00147896 0.674307 5.00549e-05C0.560397 -0.00137885 0.448195 0.027809 0.349421 0.0845641C0.242247 0.146974 0.153498 0.236634 0.0921872 0.34444C0.0308763 0.452246 -0.000812518 0.574358 0.000338888 0.698373V5.30142C-0.000870836 5.42547 0.0307917 5.54764 0.0921064 5.65549C0.153421 5.76334 0.242202 5.85303 0.349421 5.91544C0.448195 5.97219 0.560397 6.00138 0.674307 5.99995C0.788216 5.99852 0.899652 5.96653 0.996971 5.90731L4.76105 3.65349V5.30059C4.7597 5.42478 4.79129 5.54712 4.85261 5.65513C4.91393 5.76313 5.00279 5.85296 5.11014 5.91544C5.20891 5.97219 5.32111 6.00138 5.43502 5.99995C5.54893 5.99852 5.66037 5.96653 5.75769 5.90731L9.69152 3.55372C9.78504 3.49514 9.86214 3.41376 9.91559 3.31721C9.96903 3.22066 9.99707 3.11212 9.99707 3.00177C9.99707 2.89142 9.96903 2.78288 9.91559 2.68633C9.86214 2.58979 9.78504 2.5084 9.69152 2.44982V2.44691Z" fill="black"/>
</svg>
