<svg width="12" height="10" viewBox="0 0 12 10" fill="none" xmlns="http://www.w3.org/2000/svg">
<path d="M1.82227 9.43945C1.62305 9.43945 1.44531 9.38672 1.28906 9.28125C1.13281 9.17969 1.00977 9.03711 0.919922 8.85352C0.833984 8.66992 0.791016 8.46094 0.791016 8.22656V6.48047C0.791016 6.13281 0.753906 5.86914 0.679688 5.68945C0.609375 5.50586 0.484375 5.375 0.304688 5.29688C0.199219 5.23438 0.121094 5.16602 0.0703125 5.0918C0.0234375 5.01367 0 4.91016 0 4.78125V4.65234C0 4.52344 0.0234375 4.41992 0.0703125 4.3418C0.121094 4.26367 0.199219 4.19336 0.304688 4.13086C0.484375 4.05664 0.609375 3.92969 0.679688 3.75C0.753906 3.56641 0.791016 3.30273 0.791016 2.95898V1.20703C0.791016 0.972656 0.833984 0.763672 0.919922 0.580078C1.00977 0.396484 1.13281 0.253906 1.28906 0.152344C1.44531 0.0507812 1.62305 0 1.82227 0H2.23242C2.3418 0 2.41992 0.0332031 2.4668 0.0996094C2.51758 0.162109 2.54297 0.265625 2.54297 0.410156V0.556641C2.54297 0.693359 2.52148 0.796875 2.47852 0.867188C2.43555 0.9375 2.36719 0.974609 2.27344 0.978516H2.29102C2.18164 0.978516 2.10352 1.00781 2.05664 1.06641C2.01367 1.12109 1.99219 1.21484 1.99219 1.34766V3.12305C1.99219 3.50586 1.92969 3.83594 1.80469 4.11328C1.68359 4.38672 1.50977 4.58789 1.2832 4.7168C1.51367 4.84961 1.68945 5.05273 1.81055 5.32617C1.93164 5.5957 1.99219 5.92383 1.99219 6.31055V8.08594C1.99219 8.21484 2.01172 8.30859 2.05078 8.36719C2.08984 8.42578 2.15234 8.45508 2.23828 8.45508H2.25C2.35156 8.46289 2.42578 8.5 2.47266 8.56641C2.51953 8.63281 2.54297 8.73633 2.54297 8.87695V9.01758C2.54297 9.16602 2.51758 9.27344 2.4668 9.33984C2.41992 9.40625 2.3418 9.43945 2.23242 9.43945H1.82227Z" fill="black"/>
<path d="M6.70448 0.999237C6.86617 0.999237 7.00883 1.05789 7.13247 1.17519L7.48913 1.53185C7.6096 1.65232 7.66984 1.79657 7.66984 1.96459C7.66984 2.13579 7.6096 2.27845 7.48913 2.39258L6.09579 3.79068H11.4436C11.6085 3.79068 11.7424 3.85012 11.8454 3.96901C11.9485 4.08789 12 4.23135 12 4.39937V5.00807C12 5.17609 11.9485 5.31955 11.8454 5.43844C11.7424 5.55732 11.6085 5.61676 11.4436 5.61676H6.09579L7.48913 7.01486C7.6096 7.12899 7.66984 7.27165 7.66984 7.44285C7.66984 7.61405 7.6096 7.75671 7.48913 7.87084L7.13247 8.2275C7.012 8.34797 6.86934 8.4082 6.70448 8.4082C6.53646 8.4082 6.39221 8.34797 6.27174 8.2275L3.17595 5.13171C3.05865 5.02075 3 4.87809 3 4.70372C3 4.53252 3.05865 4.38828 3.17595 4.27098L6.27174 1.17519C6.39538 1.05789 6.53963 0.999237 6.70448 0.999237Z" fill="black"/>
</svg>
