<svg width="10" height="6" viewBox="0 0 10 6" fill="none" xmlns="http://www.w3.org/2000/svg">
<path d="M0.305549 2.44691L4.23938 0.093312C4.3367 0.034097 4.44814 0.00210378 4.56205 0.000674877C4.67596 -0.00075403 4.78816 0.0284338 4.88693 0.085189C4.99411 0.147598 5.08286 0.237259 5.14417 0.345065C5.20548 0.452871 5.23717 0.574982 5.23602 0.698998V2.34547L9.0001 0.0926871C9.09742 0.0334722 9.20885 0.00147896 9.32276 5.00549e-05C9.43667 -0.00137885 9.54888 0.027809 9.64765 0.0845641C9.75482 0.146974 9.84357 0.236634 9.90488 0.34444C9.96619 0.452246 9.99788 0.574358 9.99673 0.698373V5.30142C9.99794 5.42547 9.96628 5.54764 9.90496 5.65549C9.84365 5.76334 9.75487 5.85303 9.64765 5.91544C9.54888 5.97219 9.43667 6.00138 9.32276 5.99995C9.20885 5.99852 9.09742 5.96653 9.0001 5.90731L5.23602 3.65349V5.30059C5.23737 5.42478 5.20578 5.54712 5.14446 5.65513C5.08314 5.76313 4.99428 5.85296 4.88693 5.91544C4.78816 5.97219 4.67596 6.00138 4.56205 5.99995C4.44814 5.99852 4.3367 5.96653 4.23938 5.90731L0.305549 3.55372C0.212031 3.49514 0.13493 3.41376 0.0814845 3.31721C0.0280387 3.22066 0 3.11212 0 3.00177C0 2.89142 0.0280387 2.78288 0.0814845 2.68633C0.13493 2.58979 0.212031 2.5084 0.305549 2.44982V2.44691Z" fill="black"/>
</svg>
