<svg width="12" height="10" viewBox="0 0 12 10" fill="none" xmlns="http://www.w3.org/2000/svg">
<path d="M10.1777 9.43945C10.377 9.43945 10.5547 9.38672 10.7109 9.28125C10.8672 9.17969 10.9902 9.03711 11.0801 8.85352C11.166 8.66992 11.209 8.46094 11.209 8.22656V6.48047C11.209 6.13281 11.2461 5.86914 11.3203 5.68945C11.3906 5.50586 11.5156 5.375 11.6953 5.29688C11.8008 5.23438 11.8789 5.16602 11.9297 5.0918C11.9766 5.01367 12 4.91016 12 4.78125V4.65234C12 4.52344 11.9766 4.41992 11.9297 4.3418C11.8789 4.26367 11.8008 4.19336 11.6953 4.13086C11.5156 4.05664 11.3906 3.92969 11.3203 3.75C11.2461 3.56641 11.209 3.30273 11.209 2.95898V1.20703C11.209 0.972656 11.166 0.763672 11.0801 0.580078C10.9902 0.396484 10.8672 0.253906 10.7109 0.152344C10.5547 0.0507812 10.377 0 10.1777 0H9.76758C9.6582 0 9.58008 0.0332031 9.5332 0.0996094C9.48242 0.162109 9.45703 0.265625 9.45703 0.410156V0.556641C9.45703 0.693359 9.47852 0.796875 9.52148 0.867188C9.56445 0.9375 9.63281 0.974609 9.72656 0.978516H9.70898C9.81836 0.978516 9.89648 1.00781 9.94336 1.06641C9.98633 1.12109 10.0078 1.21484 10.0078 1.34766V3.12305C10.0078 3.50586 10.0703 3.83594 10.1953 4.11328C10.3164 4.38672 10.4902 4.58789 10.7168 4.7168C10.4863 4.84961 10.3105 5.05273 10.1895 5.32617C10.0684 5.5957 10.0078 5.92383 10.0078 6.31055V8.08594C10.0078 8.21484 9.98828 8.30859 9.94922 8.36719C9.91016 8.42578 9.84766 8.45508 9.76172 8.45508H9.75C9.64844 8.46289 9.57422 8.5 9.52734 8.56641C9.48047 8.63281 9.45703 8.73633 9.45703 8.87695V9.01758C9.45703 9.16602 9.48242 9.27344 9.5332 9.33984C9.58008 9.40625 9.6582 9.43945 9.76758 9.43945H10.1777Z" fill="black"/>
<path d="M5.29552 0.999237C5.13383 0.999237 4.99117 1.05789 4.86753 1.17519L4.51087 1.53185C4.3904 1.65232 4.33016 1.79657 4.33016 1.96459C4.33016 2.13579 4.3904 2.27845 4.51087 2.39258L5.90421 3.79068H0.556385C0.39153 3.79068 0.257585 3.85012 0.154551 3.96901C0.0515161 4.08789 -2.00368e-09 4.23135 0 4.39937V5.00807C2.00368e-09 5.17609 0.0515161 5.31955 0.154551 5.43844C0.257585 5.55732 0.39153 5.61676 0.556385 5.61676H5.90421L4.51087 7.01486C4.3904 7.12899 4.33016 7.27165 4.33016 7.44285C4.33016 7.61405 4.3904 7.75671 4.51087 7.87084L4.86753 8.2275C4.988 8.34797 5.13066 8.4082 5.29552 8.4082C5.46354 8.4082 5.60779 8.34797 5.72826 8.2275L8.82405 5.13171C8.94135 5.02075 9 4.87809 9 4.70372C9 4.53252 8.94135 4.38828 8.82405 4.27098L5.72826 1.17519C5.60462 1.05789 5.46037 0.999237 5.29552 0.999237Z" fill="black"/>
</svg>
