<svg width="3" height="10" viewBox="0 0 3 10" fill="none" xmlns="http://www.w3.org/2000/svg">
<path d="M0.720703 9.43945C0.919922 9.43945 1.09766 9.38672 1.25391 9.28125C1.41016 9.17969 1.5332 9.03711 1.62305 8.85352C1.70898 8.66992 1.75195 8.46094 1.75195 8.22656V6.48047C1.75195 6.13281 1.78906 5.86914 1.86328 5.68945C1.93359 5.50586 2.05859 5.375 2.23828 5.29688C2.34375 5.23438 2.42188 5.16602 2.47266 5.0918C2.51953 5.01367 2.54297 4.91016 2.54297 4.78125V4.65234C2.54297 4.52344 2.51953 4.41992 2.47266 4.3418C2.42188 4.26367 2.34375 4.19336 2.23828 4.13086C2.05859 4.05664 1.93359 3.92969 1.86328 3.75C1.78906 3.56641 1.75195 3.30273 1.75195 2.95898V1.20703C1.75195 0.972656 1.70898 0.763672 1.62305 0.580078C1.5332 0.396484 1.41016 0.253906 1.25391 0.152344C1.09766 0.0507812 0.919922 0 0.720703 0H0.310547C0.201172 0 0.123047 0.0332031 0.0761719 0.0996094C0.0253906 0.162109 0 0.265625 0 0.410156V0.556641C0 0.693359 0.0214844 0.796875 0.0644531 0.867188C0.107422 0.9375 0.175781 0.974609 0.269531 0.978516H0.251953C0.361328 0.978516 0.439453 1.00781 0.486328 1.06641C0.529297 1.12109 0.550781 1.21484 0.550781 1.34766V3.12305C0.550781 3.50586 0.613281 3.83594 0.738281 4.11328C0.859375 4.38672 1.0332 4.58789 1.25977 4.7168C1.0293 4.84961 0.853516 5.05273 0.732422 5.32617C0.611328 5.5957 0.550781 5.92383 0.550781 6.31055V8.08594C0.550781 8.21484 0.53125 8.30859 0.492188 8.36719C0.453125 8.42578 0.390625 8.45508 0.304688 8.45508H0.292969C0.191406 8.46289 0.117188 8.5 0.0703125 8.56641C0.0234375 8.63281 0 8.73633 0 8.87695V9.01758C0 9.16602 0.0253906 9.27344 0.0761719 9.33984C0.123047 9.40625 0.201172 9.43945 0.310547 9.43945H0.720703Z" fill="black"/>
</svg>
